<svg xmlns="http://www.w3.org/2000/svg" viewBox="0 0 96 96" role="img" aria-labelledby="title desc">
  <title id="title">2b2c</title>
  <desc id="desc">Deux personnes reliées, symbole de collaboration 2b2c.</desc>
  <defs>
    <linearGradient id="bg" x1="10" y1="8" x2="88" y2="92" gradientUnits="userSpaceOnUse">
      <stop offset="0" stop-color="#06B6FF"/>
      <stop offset="0.48" stop-color="#2563EB"/>
      <stop offset="1" stop-color="#7C3AED"/>
    </linearGradient>
    <linearGradient id="ribbonA" x1="22" y1="36" x2="76" y2="72" gradientUnits="userSpaceOnUse">
      <stop offset="0" stop-color="#FFFFFF"/>
      <stop offset="1" stop-color="#E9E7FF"/>
    </linearGradient>
    <linearGradient id="ribbonB" x1="18" y1="66" x2="78" y2="38" gradientUnits="userSpaceOnUse">
      <stop offset="0" stop-color="#DDF7FF"/>
      <stop offset="0.55" stop-color="#FFFFFF"/>
      <stop offset="1" stop-color="#F3E8FF"/>
    </linearGradient>
    <filter id="shadow" x="-20%" y="-20%" width="140%" height="150%">
      <feDropShadow dx="0" dy="3" stdDeviation="3" flood-color="#0B1F5D" flood-opacity="0.18"/>
    </filter>
  </defs>
  <rect x="3" y="3" width="90" height="90" rx="24" fill="url(#bg)"/>
  <path d="M8 31C14 14 28 6 48 6c20 0 36 9 42 25" fill="none" stroke="#fff" stroke-opacity=".14" stroke-width="2.2" stroke-linecap="round"/>
  <circle cx="33" cy="28" r="7" fill="#fff" fill-opacity=".96" filter="url(#shadow)"/>
  <circle cx="63" cy="28" r="7" fill="#fff" fill-opacity=".96" filter="url(#shadow)"/>
  <path d="M21 47c6-9 13-13 20-10 4 2 7 5 11 9l12 12c5 5 10 5 15-1" fill="none" stroke="url(#ribbonA)" stroke-width="11" stroke-linecap="round" stroke-linejoin="round" filter="url(#shadow)"/>
  <path d="M75 47c-6-9-13-13-20-10-4 2-7 5-11 9L32 58c-5 5-10 5-15-1" fill="none" stroke="url(#ribbonB)" stroke-width="11" stroke-linecap="round" stroke-linejoin="round" filter="url(#shadow)"/>
  <path d="M23 69c8 0 15-3 21-9" fill="none" stroke="#E7F8FF" stroke-width="8" stroke-linecap="round" opacity=".92"/>
  <path d="M73 69c-8 0-15-3-21-9" fill="none" stroke="#F3E8FF" stroke-width="8" stroke-linecap="round" opacity=".94"/>
</svg>
